# Blender 3.3.1
# www.blender.org
mtllib PisoPasto.mtl
o Plano
v -21.302649 0.000000 21.302649
v 21.302649 0.000000 21.302649
v -21.302649 0.000000 -21.302649
v 21.302649 0.000000 -21.302649
v 0.000000 0.000000 21.302649
v 0.000000 0.000000 -21.302649
v -21.302649 0.000000 -0.000000
v 10.651324 0.000000 21.302649
v 21.302649 0.000000 -0.000000
v -10.651324 0.000000 -21.302649
v -10.651324 0.000000 21.302649
v 10.651324 0.000000 -21.302649
v 0.000000 0.000000 -0.000000
v -10.651324 0.000000 -0.000000
v 10.651324 0.000000 -0.000000
v -21.302649 0.000000 10.651324
v 15.976987 0.000000 21.302649
v 21.302649 0.000000 -10.651324
v -15.976987 0.000000 -21.302649
v -5.325662 0.000000 21.302649
v 5.325662 0.000000 -21.302649
v 0.000000 0.000000 -10.651324
v -21.302649 0.000000 -10.651324
v 5.325662 0.000000 21.302649
v 21.302649 0.000000 10.651324
v -5.325662 0.000000 -21.302649
v -15.976987 0.000000 21.302649
v 15.976987 0.000000 -21.302649
v 0.000000 0.000000 10.651324
v -10.651324 0.000000 -10.651324
v -10.651324 0.000000 10.651324
v -15.976987 0.000000 -0.000000
v -5.325662 0.000000 -0.000000
v 10.651324 0.000000 -10.651324
v 10.651324 0.000000 10.651324
v 5.325662 0.000000 -0.000000
v 15.976987 0.000000 -0.000000
v 15.976987 0.000000 10.651324
v 5.325662 0.000000 10.651324
v 5.325662 0.000000 -10.651324
v -5.325662 0.000000 10.651324
v -15.976987 0.000000 10.651324
v -15.976987 0.000000 -10.651324
v -5.325662 0.000000 -10.651324
v 15.976987 0.000000 -10.651324
vn -0.0000 1.0000 -0.0000
vt 0.000000 0.000000
vt 1.000000 0.000000
vt 0.000000 1.000000
vt 1.000000 1.000000
vt 0.500000 0.000000
vt 0.500000 1.000000
vt 0.000000 0.500000
vt 0.750000 0.000000
vt 1.000000 0.500000
vt 0.250000 1.000000
vt 0.250000 0.000000
vt 0.750000 1.000000
vt 0.500000 0.500000
vt 0.250000 0.500000
vt 0.750000 0.500000
vt 0.000000 0.250000
vt 0.875000 0.000000
vt 1.000000 0.750000
vt 0.125000 1.000000
vt 0.375000 0.000000
vt 0.625000 1.000000
vt 0.500000 0.750000
vt 0.000000 0.750000
vt 0.625000 0.000000
vt 1.000000 0.250000
vt 0.375000 1.000000
vt 0.125000 0.000000
vt 0.875000 1.000000
vt 0.500000 0.250000
vt 0.250000 0.750000
vt 0.250000 0.250000
vt 0.125000 0.500000
vt 0.375000 0.500000
vt 0.750000 0.750000
vt 0.750000 0.250000
vt 0.625000 0.500000
vt 0.875000 0.500000
vt 0.875000 0.250000
vt 0.625000 0.250000
vt 0.625000 0.750000
vt 0.375000 0.250000
vt 0.125000 0.250000
vt 0.125000 0.750000
vt 0.375000 0.750000
vt 0.875000 0.750000
s 0
usemtl Material.001
f 45/45/1 18/18/1 4/4/1 28/28/1
f 44/44/1 22/22/1 6/6/1 26/26/1
f 43/43/1 30/30/1 10/10/1 19/19/1
f 42/42/1 31/31/1 14/14/1 32/32/1
f 41/41/1 29/29/1 13/13/1 33/33/1
f 40/40/1 34/34/1 12/12/1 21/21/1
f 39/39/1 35/35/1 15/15/1 36/36/1
f 38/38/1 25/25/1 9/9/1 37/37/1
f 35/35/1 38/38/1 37/37/1 15/15/1
f 8/8/1 17/17/1 38/38/1 35/35/1
f 17/17/1 2/2/1 25/25/1 38/38/1
f 29/29/1 39/39/1 36/36/1 13/13/1
f 5/5/1 24/24/1 39/39/1 29/29/1
f 24/24/1 8/8/1 35/35/1 39/39/1
f 22/22/1 40/40/1 21/21/1 6/6/1
f 13/13/1 36/36/1 40/40/1 22/22/1
f 36/36/1 15/15/1 34/34/1 40/40/1
f 31/31/1 41/41/1 33/33/1 14/14/1
f 11/11/1 20/20/1 41/41/1 31/31/1
f 20/20/1 5/5/1 29/29/1 41/41/1
f 16/16/1 42/42/1 32/32/1 7/7/1
f 1/1/1 27/27/1 42/42/1 16/16/1
f 27/27/1 11/11/1 31/31/1 42/42/1
f 23/23/1 43/43/1 19/19/1 3/3/1
f 7/7/1 32/32/1 43/43/1 23/23/1
f 32/32/1 14/14/1 30/30/1 43/43/1
f 30/30/1 44/44/1 26/26/1 10/10/1
f 14/14/1 33/33/1 44/44/1 30/30/1
f 33/33/1 13/13/1 22/22/1 44/44/1
f 34/34/1 45/45/1 28/28/1 12/12/1
f 15/15/1 37/37/1 45/45/1 34/34/1
f 37/37/1 9/9/1 18/18/1 45/45/1
